<svg xmlns="http://www.w3.org/2000/svg" xmlns:xlink="http://www.w3.org/1999/xlink" viewBox="0 0 360.49 58.36"><defs><style>.cls-1{fill:none;}.cls-2{clip-path:url(#clip-path);}.cls-3{fill:#fff;}</style><clipPath id="clip-path" transform="translate(-65.75 -63.62)"><rect class="cls-1" width="492" height="185.59"/></clipPath></defs><title>Asset 2</title><g id="Layer_2" data-name="Layer 2"><g id="LOGO"><g class="cls-2"><path class="cls-3" d="M65.75,63.62H85.4L96.06,102l10.66-38.4h17L105.2,120.94H84.67Z" transform="translate(-65.75 -63.62)"/><path class="cls-3" d="M136.79,63.62h23.48l18,57.32H159l-2.64-9.54H138.23l-2.57,9.54H118.75Zm4.89,35.43H153l-5.61-20.76Z" transform="translate(-65.75 -63.62)"/><path class="cls-3" d="M184.16,63.62h18.2v43.29h20.85v14H184.16Z" transform="translate(-65.75 -63.62)"/><path class="cls-3" d="M228.5,97.29V63.62h18.12V96.57c0,7.45,1.6,11.14,8.09,11.14s8-3.69,8-11.23V63.62H281V97.13c0,17.23-10.26,24.85-26.3,24.85C238,122,228.5,113.64,228.5,97.29Z" transform="translate(-65.75 -63.62)"/><path class="cls-3" d="M291,63.62h40.72V77.56h-22.6v8.1h18V98.41h-18V107H333v14H291Z" transform="translate(-65.75 -63.62)"/><path class="cls-3" d="M340.73,63.62h23.41c15.79,0,24,6.33,24,18.59v.33c0,7.93-4,12.42-9.7,15l13.07,23.41H372.4L361.74,101.3h-2.89v19.64H340.73Zm22.37,26c5,0,7.45-2.08,7.45-6.25V83c0-4.17-2.48-5.78-7.37-5.78h-4.33V89.59Z" transform="translate(-65.75 -63.62)"/><path class="cls-3" d="M405,102.49l-11.12,2.76-2.27-9.13,11.13-2.76-3-12.15,10.1-2.5,3,12.15L424,88.09l2.27,9.13L415.06,100l3,12.21L408,114.7Z" transform="translate(-65.75 -63.62)"/></g></g></g></svg>